<svg width="304" height="303" viewBox="0 0 304 303" fill="none" xmlns="http://www.w3.org/2000/svg">
<g clip-path="url(#clip0_507_2595)">
<path d="M304 151.5C304 67.8289 235.947 0 152 0C68.0527 0 0 67.8289 0 151.5C0 235.171 68.0527 303 152 303C235.947 303 304 235.171 304 151.5Z" fill="#3B82F6"/>
<path d="M188.276 104.053C188.791 103.579 189.395 103.211 190.054 102.971C190.713 102.73 191.413 102.622 192.114 102.653C193.005 102.624 193.887 102.837 194.666 103.268C195.445 103.7 196.092 104.334 196.538 105.103C197.369 106.787 197.768 108.65 197.702 110.525C197.617 110.46 197.529 110.4 197.438 110.344C196.966 110.058 196.424 109.906 195.871 109.905C195.318 109.904 194.776 110.053 194.302 110.337C192.192 111.447 191.21 115.559 191.21 115.559L190.431 118.33C190.169 118.233 189.893 118.176 189.613 118.16C186.87 117.978 185.876 125.287 185.239 127.384C183.962 131.296 181.91 134.913 179.205 138.019C176.499 141.125 173.195 143.658 169.488 145.468C163.798 147.341 161.029 150.429 159.771 154.238C158.236 152.88 156.748 151.572 155.715 150.663L153.351 150.611L145.422 148.897C139.014 147.992 133.782 144.484 128.925 138.691C125.41 134.462 122.802 129.56 121.261 124.288C120.408 124.468 119.525 124.451 118.679 124.24C117.833 124.029 117.047 123.629 116.379 123.07C113.56 120.768 112.385 117.558 111.671 115.459C110.659 112.497 110.597 107.708 112.101 105.109C112.547 104.34 113.194 103.706 113.973 103.274C114.752 102.843 115.634 102.63 116.525 102.659C117.227 102.627 117.928 102.735 118.588 102.975C119.247 103.215 119.853 103.583 120.369 104.058C120.369 104.058 111.442 76.0781 154.322 76.0781C197.201 76.0781 188.276 104.053 188.276 104.053Z" fill="#FFDBB4"/>
<path d="M158.037 246.402C157.634 246.445 157.261 246.467 156.929 246.474C152.536 246.542 147.452 246.618 143.168 246.654C143.012 238.038 142.895 227.477 142.75 221.442H144.083C148.494 221.322 152.873 220.647 157.114 219.431L158.294 219.021L160.535 218.242C160.699 219.405 160.875 220.567 161.061 221.726C161.577 224.954 162.031 228.412 162.781 231.788C163.466 235.177 164.659 238.445 166.318 241.481C164.791 244.877 160.758 246.113 158.037 246.402Z" fill="#FFDBB4"/>
<path d="M153.115 220.427C153.838 220.283 154.541 220.132 155.218 219.963C150.598 209.872 146.539 199.536 143.06 189C138.626 175.372 134.957 161.508 132.071 147.474L131.542 144.807C131.542 144.807 131.23 143.228 130.731 140.715C130.242 140.2 129.758 139.662 129.278 139.102L127.203 140.247L125.362 141.263C124.883 141.541 124.423 141.827 123.982 142.122C123.845 142.213 123.71 142.305 123.579 142.402C110.889 146.267 100.999 150.086 93.7624 157.599C88.5206 163.674 84.56 173.119 81.8531 187.076C79.7434 198.37 78.6142 209.824 78.4782 221.311C78.2569 231.012 80.7122 239.208 84.5405 243.683C91.2312 251.505 104.696 253.073 114.111 252.986C124.055 252.894 131.468 252.666 143.279 251.967C143.065 242.895 142.93 228.845 142.754 221.478L144.079 221.438C147.113 221.335 150.134 220.997 153.115 220.427Z" fill="#B3B3B3"/>
<path d="M162.76 231.783C163.684 235.827 165.01 239.751 167.297 243.014C174.99 253.992 190.794 255.773 201.844 249.304C207.298 246.003 211.801 241.352 214.918 235.803C223.43 220.854 225.756 201.948 225.818 184.982C225.043 170.517 220.508 163.7 215.513 157.647C210.337 152.031 203.718 148.495 195.611 145.469C193.794 150.835 190.614 153.747 184.719 158.187C183.817 158.831 182.863 159.401 181.867 159.891C180.918 160.406 180.149 161.198 179.665 162.162C179.181 163.125 179.005 164.213 179.16 165.279C179.471 167.441 179.565 168.131 179.866 170.071C173.322 170.773 166.541 171.387 160.192 172.317C159.687 172.429 159.238 172.715 158.923 173.125C158.609 173.534 158.449 174.041 158.472 174.557C158.199 182.091 158.239 189.35 158.552 196.68C158.904 205.068 159.741 213.429 161.059 221.721C161.575 224.948 162.049 228.408 162.799 231.785" fill="#B3B3B3"/>
<path d="M153.351 150.61L145.422 148.896C139.8 148.104 135.083 145.305 130.731 140.719C131.217 143.169 131.54 144.807 131.54 144.807L132.068 147.473C134.955 161.508 138.624 175.371 143.058 188.999C143.766 191.089 144.461 193.107 145.162 195.087C146.647 182.221 148.758 166.046 148.758 165.587C148.727 164.791 148.606 164 148.397 163.231C148.303 162.885 148.223 162.532 148.151 162.179C147.76 160.428 147.688 159.534 147.24 157.682L147.019 156.529C149.102 154.511 151.718 152.04 153.349 150.609" fill="#FFDBB4"/>
<path d="M159.881 213.256C159.229 207.755 158.786 202.23 158.552 196.682C158.239 189.351 158.199 182.092 158.472 174.559C158.469 174.159 158.566 173.765 158.754 173.413C158.943 173.06 159.217 172.76 159.552 172.541C159.168 165.944 158.062 159.425 159.769 154.237C158.234 152.879 156.746 151.571 155.713 150.661L154.7 150.639L153.351 150.609C151.709 152.055 149.054 154.561 146.96 156.591C147.675 159.246 147.693 160.122 148.153 162.183C148.225 162.536 148.305 162.889 148.399 163.235C148.608 164.005 148.73 164.795 148.76 165.592C148.76 166.047 146.649 182.225 145.164 195.091C147.89 202.802 150.686 209.936 154.491 218.362L155.214 219.965C155.88 219.8 156.515 219.621 157.113 219.429L160.535 218.24C160.296 216.582 160.078 214.921 159.881 213.256Z" fill="#3D8DCC"/>
<path d="M149.274 165.961C152.778 165.961 156.282 165.889 159.787 165.889C160.247 165.889 160.688 165.706 161.014 165.382C161.339 165.058 161.522 164.618 161.522 164.159C161.522 163.7 161.339 163.261 161.014 162.936C160.688 162.612 160.247 162.43 159.787 162.43C156.282 162.43 152.778 162.502 149.274 162.502C148.813 162.502 148.372 162.684 148.047 163.008C147.721 163.333 147.538 163.773 147.538 164.231C147.538 164.69 147.721 165.13 148.047 165.454C148.372 165.779 148.813 165.961 149.274 165.961Z" fill="#211715"/>
<path d="M145.569 158.145C145.874 159.429 146.082 160.73 146.347 162.022C146.712 163.193 146.939 164.402 147.024 165.625C146.991 166.535 146.812 167.46 146.7 168.363C146.117 173.065 145.521 177.766 144.942 182.469C144.53 185.818 144.125 189.169 143.728 192.522C143.731 192.979 143.915 193.418 144.24 193.741C144.564 194.065 145.004 194.248 145.463 194.251C145.92 194.241 146.356 194.055 146.679 193.733C147.002 193.411 147.188 192.977 147.199 192.522C147.877 186.757 148.581 180.996 149.31 175.24C149.579 173.087 149.849 170.934 150.118 168.781C150.245 167.762 150.432 166.726 150.488 165.699C150.448 164.396 150.235 163.104 149.854 161.856C149.519 160.317 149.276 158.758 148.914 157.227C148.4 155.065 145.053 155.978 145.568 158.146L145.569 158.145Z" fill="#211715"/>
<path d="M167.207 158.68C164.322 155.726 161.07 153.08 157.971 150.353C157.176 149.651 156.525 148.979 155.407 148.933C154.735 148.905 154.033 148.85 153.36 148.888C152.203 148.952 151.203 150.213 150.392 150.961C149.468 151.814 148.55 152.675 147.639 153.544C146.034 155.071 144.414 156.595 142.882 158.197C141.351 159.799 143.792 162.259 145.336 160.643C148.266 157.577 151.398 154.647 154.578 151.84L153.349 152.345L155.713 152.396L154.484 151.892C157.923 154.919 161.546 157.844 164.75 161.126C166.31 162.725 168.763 160.278 167.208 158.68H167.207Z" fill="#211715"/>
<path d="M155.988 217.492C151.481 207.434 147.515 197.143 144.107 186.664C140.883 176.826 138.227 166.789 135.87 156.712C134.91 152.607 134.024 148.487 133.214 144.352C133.087 143.912 132.793 143.539 132.394 143.314C131.994 143.088 131.522 143.027 131.079 143.144C130.64 143.274 130.269 143.568 130.043 143.965C129.817 144.361 129.754 144.83 129.867 145.272C131.593 153.996 133.619 162.653 135.944 171.243C138.672 181.388 141.873 191.38 145.55 201.221C147.826 207.309 150.322 213.311 152.991 219.236C153.226 219.63 153.607 219.915 154.051 220.031C154.495 220.147 154.967 220.085 155.366 219.857C155.755 219.618 156.036 219.238 156.152 218.798C156.268 218.357 156.209 217.889 155.988 217.49V217.492Z" fill="#211715"/>
<path d="M126.325 138.754C122.567 140.689 119.277 143.417 116.685 146.749C115.953 147.735 115.28 148.764 114.67 149.83C113.938 151.1 113.135 152.454 114.049 153.865C114.793 155.015 116.566 155.523 117.731 156.142C119.128 156.889 120.504 157.678 121.857 158.508V155.521C119.728 156.767 117.765 158.276 116.015 160.012C114.289 161.708 112.328 163.649 113.164 166.281C113.628 167.476 114.179 168.636 114.811 169.751C115.416 170.977 116.028 172.2 116.648 173.42C117.805 175.686 118.99 177.937 120.203 180.172C124.014 187.166 128.043 194.052 132.003 200.962C133.947 204.349 135.891 207.743 137.886 211.103C139.023 213.017 142.024 211.279 140.882 209.357C137.275 203.281 133.797 197.126 130.301 190.986C126.21 183.804 122.104 176.64 118.417 169.238C117.804 168.006 117.133 166.78 116.592 165.516C116.178 164.55 116.936 164.05 117.581 163.365C119.341 161.462 121.372 159.825 123.608 158.508C123.865 158.353 124.078 158.133 124.226 157.872C124.373 157.61 124.451 157.315 124.451 157.015C124.451 156.715 124.373 156.42 124.226 156.158C124.078 155.897 123.865 155.677 123.608 155.521C122.497 154.843 121.37 154.189 120.229 153.561C119.682 153.261 119.132 152.968 118.579 152.682C118.333 152.555 117.008 151.673 116.756 151.768C116.86 151.863 116.943 151.978 117 152.106C117.056 152.235 117.086 152.373 117.086 152.514C117.078 152.706 117.126 152.651 117.231 152.349C117.396 152.109 117.52 151.828 117.665 151.575C117.928 151.118 118.202 150.666 118.487 150.221C119.025 149.367 119.617 148.549 120.26 147.77C122.459 145.287 125.111 143.241 128.075 141.742C130.027 140.661 128.28 137.675 126.323 138.755L126.325 138.754Z" fill="#211715"/>
<path d="M191.012 70.6012C189.417 68.0479 187.448 65.7459 185.171 63.7712L179.749 58.9675C172.718 51.161 163.375 49.0035 154.166 49.0042C144.849 48.8727 135.756 51.8526 128.335 57.4693C125.566 59.6372 123.116 62.181 121.055 65.0265C116.336 69.6313 112.571 79.6883 112.853 89.6646C112.821 94.1799 113.376 98.6804 114.504 103.054C115.152 102.812 115.836 102.681 116.528 102.665C117.229 102.634 117.93 102.742 118.589 102.982C119.248 103.222 119.853 103.591 120.369 104.065L121.887 105.126C121.998 103.089 122.219 101.059 122.549 99.0456C123.255 94.7723 127.705 92.8014 129.596 88.9857C130.685 86.7878 131.331 84.2188 133.196 82.6543C134.599 81.4768 136.471 81.0776 138.277 80.8874C141.075 80.5941 150.537 81.0135 153.702 81.5958C156.377 81.7456 158.974 82.2782 162.792 82.7624C164.863 83.0255 168.704 83.6992 170.173 83.994C175.95 85.3178 178.164 86.7547 181.066 90.6727C182.178 92.1745 183.362 94.9143 184.458 98.4814L188.276 104.059C188.791 103.585 189.395 103.216 190.054 102.976C190.713 102.736 191.413 102.628 192.114 102.659C192.754 102.674 193.388 102.787 193.993 102.994C195.216 98.6578 195.756 94.1586 195.592 89.6574C195.22 80.8456 193.762 75.1375 191.012 70.6012Z" fill="#85807F"/>
<path d="M119.828 63.803C116.465 67.1366 114.362 71.6815 112.989 76.1487C111.426 81.5406 110.823 87.1639 111.208 92.7633C111.361 96.2174 111.859 99.6477 112.694 103.003C113.246 105.159 116.594 104.245 116.041 102.084C115.184 98.6178 114.71 95.0688 114.627 91.5001C114.461 88.1716 114.662 84.835 115.228 81.5505C116.253 76.1321 118.269 70.2223 122.282 66.2488C123.872 64.6778 121.414 62.232 119.828 63.803Z" fill="#211715"/>
<path d="M180.975 57.7409C174.864 51.0239 166.352 47.9051 157.418 47.3661C148.381 46.8241 138.983 48.2654 131.087 52.8601C128.778 54.1597 126.647 55.7505 124.746 57.5931C122.825 59.6214 121.088 61.8159 119.557 64.1508C119.329 64.5478 119.266 65.0183 119.382 65.461C119.499 65.9036 119.785 66.2829 120.179 66.5173C120.579 66.7397 121.049 66.7994 121.492 66.6837C121.935 66.568 122.315 66.286 122.554 65.8969C123.77 64.065 125.116 62.3222 126.582 60.6817C128.065 59.1194 129.743 57.7535 131.575 56.6174C135.122 54.3733 139.033 52.7601 143.134 51.8498C147.291 50.9548 151.546 50.5863 155.796 50.753C159.669 50.8184 163.51 51.4673 167.188 52.6778C171.544 54.1832 175.445 56.7669 178.525 60.1866C180.029 61.839 182.477 59.3868 180.979 57.7409H180.975Z" fill="#211715"/>
<path d="M195.778 102.994C196.691 99.5104 197.221 95.9376 197.358 92.3393C197.403 88.9361 197.166 85.535 196.65 82.1706C195.944 77.2798 194.473 72.435 191.613 68.3484C190.098 66.225 188.349 64.2781 186.398 62.5445C184.747 61.0514 182.286 63.4907 183.944 64.9903C187.069 67.6479 189.542 70.9827 191.174 74.7396C193.226 79.8207 193.826 85.5013 193.898 90.9377C193.886 94.697 193.395 98.4395 192.435 102.075C191.903 104.237 195.249 105.159 195.781 102.994H195.778Z" fill="#211715"/>
<path d="M154.163 79.9251C151.373 79.4915 148.557 79.2423 145.734 79.1793C143.157 78.9781 140.568 78.982 137.992 79.1908C135.853 79.3171 133.799 80.0647 132.081 81.3412C130.578 82.5742 129.736 84.3469 128.992 86.0973C128.422 87.635 127.604 89.0695 126.569 90.3439C125.51 91.5473 124.309 92.6218 123.288 93.8591C121.958 95.3905 121.085 97.2628 120.768 99.2638C120.43 101.457 120.262 103.66 120.09 105.869C120.093 106.327 120.278 106.764 120.602 107.088C120.927 107.411 121.366 107.595 121.825 107.598C122.282 107.59 122.719 107.405 123.042 107.082C123.366 106.76 123.551 106.325 123.56 105.869C123.804 102.774 123.606 99.0951 125.579 96.5052C127.459 94.0414 129.998 92.2463 131.329 89.3631C132.031 87.8448 132.543 86.1765 133.538 84.8117C134.532 83.4468 136.116 82.9301 137.737 82.6844C140.082 82.437 142.444 82.4078 144.793 82.5972C146.416 82.6577 148.037 82.7457 149.656 82.8703C150.395 82.9273 151.133 82.9914 151.869 83.0714C151.989 83.0844 152.774 83.1809 152.417 83.1326C152.692 83.1701 152.967 83.2133 153.241 83.2623C153.684 83.3714 154.152 83.3068 154.549 83.082C154.947 82.8572 155.242 82.4892 155.375 82.0539C155.493 81.6117 155.433 81.141 155.206 80.7431C154.979 80.3452 154.605 80.052 154.163 79.9266V79.9251Z" fill="#211715"/>
<path d="M169.712 85.6621C170.708 85.8927 171.699 86.1427 172.673 86.4547C173.062 86.5794 173.449 86.7127 173.83 86.859C173.888 86.8814 174.408 87.099 174.15 86.9851C174.305 87.0529 174.459 87.1235 174.613 87.197C175.848 87.7451 176.957 88.5409 177.87 89.5347C178.933 90.5817 179.828 91.7861 180.522 93.1054C181.454 94.9779 182.211 96.9318 182.785 98.9424C183.441 101.062 186.792 100.158 186.131 98.0229C185.466 95.7264 184.592 93.4954 183.519 91.3579C182.662 89.7909 181.586 88.353 180.324 87.0875C177.695 84.3858 174.238 83.1608 170.635 82.3277C170.192 82.2156 169.722 82.2786 169.324 82.5037C168.926 82.7288 168.631 83.0985 168.5 83.5355C168.383 83.9777 168.445 84.448 168.671 84.8456C168.898 85.2433 169.272 85.5366 169.713 85.6628L169.712 85.6621Z" fill="#211715"/>
<path d="M164.674 81.6396C164.145 79.3956 162.385 77.4802 160.611 76.1045C157.664 73.9088 154.177 72.5449 150.518 72.1562C150.058 72.1583 149.618 72.3412 149.293 72.6651C148.968 72.989 148.785 73.4277 148.783 73.8857C148.794 74.3409 148.981 74.7742 149.304 75.0961C149.627 75.4181 150.061 75.6039 150.518 75.6152C152.108 75.8416 153.665 76.2602 155.153 76.8619C154.887 76.7531 155.331 76.9412 155.381 76.9635C155.562 77.0457 155.742 77.1314 155.919 77.2193C156.238 77.3774 156.551 77.5455 156.859 77.7238C157.152 77.8934 157.44 78.0721 157.723 78.2599C157.867 78.3572 158.012 78.4574 158.156 78.5597C158.224 78.608 158.576 78.8732 158.274 78.6397C158.741 79.0008 159.183 79.393 159.597 79.8136C159.772 79.9909 159.941 80.1739 160.103 80.3627C160.194 80.4665 160.276 80.5789 160.37 80.6819C160.45 80.7828 160.419 80.7417 160.276 80.5587C160.32 80.6178 160.365 80.6783 160.409 80.7389C160.666 81.0998 160.897 81.4789 161.099 81.8731C161.142 81.9539 161.181 82.0369 161.215 82.1217C161.171 82.1491 161.064 81.6793 161.171 82.0302C161.224 82.2075 161.286 82.379 161.328 82.5599C161.389 82.7789 161.492 82.9839 161.632 83.1631C161.772 83.3424 161.946 83.4924 162.145 83.6046C162.343 83.7168 162.561 83.7889 162.787 83.817C163.014 83.845 163.243 83.8284 163.463 83.768C163.683 83.7076 163.888 83.6047 164.068 83.4651C164.248 83.3255 164.398 83.152 164.511 82.9544C164.624 82.7568 164.696 82.5391 164.724 82.3136C164.752 82.0882 164.736 81.8594 164.675 81.6404L164.674 81.6396Z" fill="#211715"/>
<path d="M121.593 102.837C120.484 101.851 119.107 101.215 117.635 101.01C116.163 100.804 114.664 101.039 113.326 101.684C112.376 102.195 111.553 102.911 110.916 103.78C110.279 104.649 109.845 105.648 109.645 106.706C109.1 109.227 109.079 111.832 109.582 114.362C110.084 116.891 111.1 119.292 112.568 121.416C114.636 124.406 117.568 126.553 121.355 126.038C121.797 125.914 122.173 125.62 122.399 125.222C122.626 124.824 122.686 124.352 122.567 123.91C122.434 123.474 122.139 123.106 121.741 122.881C121.344 122.656 120.876 122.592 120.432 122.702C117.837 123.056 115.802 120.278 114.736 118.318C113.627 116.342 112.943 114.158 112.727 111.904C112.609 110.64 112.661 109.366 112.882 108.115C112.974 107.589 113.116 107.072 113.304 106.572C113.405 106.332 113.526 106.1 113.665 105.88C113.691 105.838 113.962 105.448 113.843 105.601C114.388 104.972 115.142 104.559 115.966 104.438C116.525 104.332 117.1 104.353 117.65 104.499C118.199 104.645 118.708 104.913 119.14 105.283C120.792 106.773 123.254 104.333 121.594 102.837H121.593Z" fill="#211715"/>
<path d="M189.503 105.283C190.268 104.642 191.253 104.322 192.25 104.392C193.247 104.461 194.178 104.915 194.845 105.657C194.609 105.368 194.941 105.818 194.979 105.88C195.118 106.101 195.239 106.332 195.34 106.572C195.514 107.032 195.646 107.507 195.737 107.99C195.98 109.28 196.04 110.597 195.917 111.904C195.705 114.114 195.043 116.258 193.97 118.204C192.906 120.198 190.852 123.06 188.214 122.702C187.771 122.595 187.303 122.661 186.907 122.885C186.511 123.11 186.215 123.476 186.079 123.91C185.96 124.352 186.02 124.823 186.247 125.222C186.474 125.62 186.849 125.913 187.291 126.037C193.464 126.877 197.052 120.881 198.68 115.813C199.476 113.185 199.653 110.409 199.198 107.702C199.083 106.603 198.745 105.54 198.203 104.577C197.661 103.614 196.927 102.771 196.046 102.101C194.673 101.224 193.049 100.822 191.423 100.955C189.798 101.088 188.262 101.749 187.05 102.838C185.387 104.334 187.851 106.774 189.504 105.283H189.503Z" fill="#211715"/>
<path d="M186.285 121.347C185.973 122.796 185.563 124.221 185.056 125.614C184.884 126.101 184.61 126.839 184.472 127.162C184.349 127.451 184.21 127.739 184.091 128.027C184.062 128.099 183.897 128.518 184.012 128.237C184.128 127.957 183.962 128.348 183.933 128.413C183.867 128.557 183.801 128.702 183.733 128.84C183.566 129.189 183.39 129.533 183.209 129.875C182.775 130.693 182.31 131.496 181.825 132.286C179.413 136.343 176.338 139.969 172.727 143.015C170.784 144.669 168.484 145.855 166.007 146.481C163.833 146.985 164.753 150.317 166.93 149.816C172.094 148.627 176.392 144.864 179.76 140.952C182.634 137.72 185.039 134.104 186.906 130.207C187.084 129.816 187.241 129.414 187.412 129.02C187.182 129.563 187.709 128.345 187.724 128.31C187.852 128 187.976 127.687 188.096 127.373C188.744 125.711 189.258 124 189.634 122.256C189.745 121.814 189.681 121.347 189.455 120.951C189.229 120.555 188.859 120.26 188.421 120.129C187.978 120.011 187.505 120.072 187.106 120.298C186.707 120.524 186.413 120.897 186.287 121.337L186.285 121.347Z" fill="#211715"/>
<path d="M118.915 122.151C120.04 127.139 122.06 131.883 124.877 136.155C127.941 140.767 131.977 145.08 136.859 147.801C139.369 149.205 142.114 150.142 144.961 150.566C145.404 150.673 145.872 150.608 146.268 150.383C146.665 150.159 146.961 149.792 147.095 149.358C147.214 148.916 147.154 148.445 146.927 148.047C146.7 147.649 146.325 147.356 145.883 147.231C135.811 145.748 128.276 137.042 124.464 128.115C123.525 125.891 122.788 123.587 122.262 121.232C121.769 119.061 118.422 119.98 118.915 122.151Z" fill="#211715"/>
<path d="M148.595 132.648C150.652 133.708 152.944 134.237 155.26 134.186C157.659 134.287 160.024 133.591 161.984 132.208C162.307 131.883 162.489 131.443 162.489 130.985C162.489 130.527 162.307 130.088 161.984 129.762C161.653 129.448 161.214 129.273 160.757 129.273C160.3 129.273 159.861 129.448 159.53 129.762C160.056 129.354 159.649 129.666 159.513 129.752C159.378 129.839 159.242 129.916 159.101 129.99C159.029 130.028 158.957 130.062 158.881 130.099C158.599 130.244 158.953 130.069 158.953 130.076C158.77 130.161 158.58 130.23 158.385 130.283C157.865 130.445 157.333 130.566 156.794 130.643C157.051 130.605 156.749 130.643 156.644 130.656C156.488 130.671 156.332 130.683 156.175 130.694C155.799 130.718 155.422 130.728 155.045 130.726C154.707 130.726 154.369 130.712 154.032 130.689C153.878 130.679 153.723 130.666 153.569 130.651C153.551 130.651 152.991 130.571 153.346 130.627C152.844 130.55 152.348 130.44 151.861 130.298C151.652 130.236 151.449 130.161 151.244 130.092C150.801 129.94 151.5 130.223 151.099 130.035C150.844 129.915 150.593 129.79 150.344 129.659C149.944 129.438 149.474 129.378 149.032 129.494C148.589 129.61 148.209 129.891 147.97 130.28C147.743 130.677 147.681 131.147 147.797 131.589C147.913 132.032 148.199 132.411 148.593 132.646L148.595 132.648Z" fill="#211715"/>
<path d="M154.375 117.001C154.682 118.105 154.928 119.226 155.111 120.357L155.05 119.897C155.071 120.051 155.076 120.206 155.062 120.36L155.124 119.901C155.114 119.972 155.097 120.041 155.073 120.109L155.248 119.695C155.228 119.742 155.204 119.787 155.175 119.829L155.447 119.48C155.414 119.52 155.377 119.556 155.337 119.588L155.688 119.317C155.603 119.371 155.513 119.419 155.421 119.461L155.836 119.287C155.692 119.348 155.541 119.391 155.387 119.417L155.848 119.355C155.708 119.372 155.566 119.372 155.426 119.355L155.887 119.417C155.728 119.395 155.572 119.357 155.413 119.335C155.189 119.263 154.95 119.253 154.721 119.304C154.491 119.314 154.269 119.385 154.076 119.509C153.879 119.624 153.707 119.776 153.569 119.957C153.431 120.138 153.33 120.344 153.273 120.564C153.215 120.784 153.201 121.013 153.232 121.238C153.263 121.463 153.338 121.68 153.453 121.876C153.563 122.071 153.712 122.242 153.89 122.378C154.068 122.514 154.273 122.613 154.49 122.669C154.852 122.717 155.205 122.809 155.575 122.825C156.13 122.829 156.679 122.699 157.173 122.446C157.486 122.304 157.764 122.094 157.985 121.832C158.207 121.569 158.366 121.261 158.453 120.929C158.566 120.39 158.56 119.833 158.436 119.296C158.253 118.215 158.002 117.143 157.723 116.083C157.601 115.64 157.307 115.265 156.907 115.038C156.507 114.812 156.032 114.753 155.589 114.875C155.145 114.997 154.768 115.289 154.541 115.688C154.313 116.087 154.254 116.56 154.377 117.002L154.375 117.001Z" fill="#211715"/>
<path d="M136.51 107.494C135.947 109.316 136.314 113.505 139.776 113.862C144.351 113.834 144.594 108.768 143.054 106.387C141.793 104.437 138.082 103.627 136.51 107.494Z" fill="#211715"/>
<path d="M173.292 107.494C173.855 109.315 173.489 113.505 170.027 113.862C165.452 113.834 165.208 108.769 166.748 106.387C168.005 104.437 171.713 103.627 173.292 107.494Z" fill="#211715"/>
<path d="M83.5254 187.543C85.1565 179.184 87.3754 170.624 91.8182 163.266C93.6093 160.248 95.954 157.593 98.7301 155.44C101.924 153.008 105.406 150.976 109.098 149.392C113.962 147.311 118.953 145.536 124.039 144.076C126.169 143.427 125.261 140.086 123.117 140.741C114.288 143.433 105.121 146.4 97.629 151.956C95.948 153.189 94.3637 154.547 92.8897 156.019C91.6612 157.323 90.5642 158.743 89.6145 160.26C87.519 163.547 85.7973 167.057 84.4812 170.724C82.6119 175.897 81.1727 181.215 80.1779 186.623C80.0676 187.065 80.1318 187.532 80.3574 187.928C80.5829 188.324 80.9525 188.619 81.3896 188.751C81.8332 188.869 82.3055 188.808 82.7047 188.582C83.104 188.356 83.3982 187.983 83.5239 187.543H83.5254Z" fill="#211715"/>
<path d="M161.087 232.244C162.599 238.784 165.364 244.948 170.785 249.161C175.355 252.635 180.902 254.593 186.647 254.762C192.372 254.987 198.04 253.559 202.97 250.65C208.903 246.978 213.746 241.794 216.996 235.633C223.742 223.231 226.367 208.965 227.233 195.013C227.523 191.565 227.623 188.104 227.534 184.644C227.376 181.223 226.909 177.822 226.139 174.484C224.992 169.509 222.898 164.8 219.969 160.613C218.627 158.628 217.103 156.77 215.418 155.064C213.293 153.011 210.952 151.192 208.435 149.638C202.99 146.245 196.893 143.97 190.821 141.965C189.129 141.406 187.43 140.87 185.727 140.344C183.589 139.683 182.676 143.021 184.805 143.679C195.598 147.017 207.825 150.767 215.158 159.941C217.867 163.268 220.015 167.012 221.52 171.025C223.459 176.858 224.307 182.995 224.021 189.133C223.67 202.372 221.924 215.925 216.734 228.217C214.203 234.212 210.848 239.811 205.948 244.179C201.909 247.867 196.858 250.271 191.44 251.084C186.34 251.83 181.133 251.009 176.513 248.729C171.442 246.105 167.602 241.608 165.813 236.2C165.265 234.6 164.805 232.971 164.435 231.321C163.933 229.153 160.586 230.071 161.088 232.241L161.087 232.244Z" fill="#211715"/>
<path d="M80.1794 186.62C78.5406 195.314 77.4748 204.105 76.9888 212.937C76.5253 220.988 76.2701 229.368 78.9965 237.083C80.0682 240.397 81.874 243.429 84.2802 245.954C86.9171 248.456 90.0506 250.381 93.479 251.604C100.186 254.173 107.577 254.784 114.709 254.713C124.243 254.618 133.76 254.262 143.277 253.7C143.735 253.693 144.172 253.508 144.496 253.186C144.82 252.863 145.005 252.427 145.012 251.971C144.781 242.059 144.723 232.144 144.506 222.231C144.471 220.645 144.443 219.05 144.351 217.462C144.343 217.006 144.158 216.571 143.834 216.248C143.511 215.926 143.074 215.741 142.616 215.733C134.595 215.839 126.569 215.77 118.548 215.782C115.295 215.788 112.042 215.798 108.787 215.812C106.554 215.822 106.55 219.281 108.787 219.271C118.438 219.227 128.091 219.257 137.74 219.226C139.364 219.221 140.989 219.213 142.614 219.192L140.879 217.462C141.077 220.908 141.081 224.37 141.138 227.82C141.225 233.081 141.294 238.337 141.381 243.596C141.426 246.387 141.479 249.179 141.541 251.971L143.276 250.241C135.016 250.729 126.753 251.083 118.477 251.208C111.502 251.313 104.547 251.256 97.7721 249.374C94.4603 248.531 91.3352 247.08 88.5568 245.095C86.102 243.212 84.1885 240.717 83.0092 237.862C79.9263 230.859 80.0145 223.005 80.3341 215.515C80.7146 206.124 81.7819 196.774 83.5276 187.538C83.6379 187.096 83.5736 186.629 83.3481 186.233C83.1226 185.837 82.753 185.542 82.3158 185.41C81.8722 185.293 81.4 185.353 81.0007 185.579C80.6015 185.805 80.3073 186.178 80.1815 186.618L80.1794 186.62Z" fill="#211715"/>
<path d="M108.135 185.198C109.313 194.992 110.51 204.785 111.641 214.584C111.655 215.039 111.842 215.471 112.164 215.793C112.487 216.114 112.921 216.301 113.377 216.314C113.836 216.311 114.276 216.128 114.601 215.805C114.926 215.481 115.109 215.042 115.112 214.584C113.98 204.784 112.783 194.992 111.605 185.198C111.592 184.744 111.405 184.312 111.082 183.99C110.76 183.669 110.326 183.482 109.87 183.469C109.411 183.472 108.971 183.655 108.646 183.978C108.321 184.302 108.138 184.74 108.135 185.198Z" fill="#211715"/>
<path d="M144.195 248.372C147.643 248.339 151.092 248.295 154.54 248.238C157.744 248.19 160.714 247.993 163.636 246.531C165.632 245.533 163.877 242.548 161.884 243.544C159.341 244.817 156.655 244.748 153.886 244.79C150.657 244.838 147.428 244.879 144.198 244.914C141.966 244.936 141.96 248.395 144.198 248.372H144.195Z" fill="#211715"/>
<path d="M144.083 223.173C149.071 223.086 154.018 222.249 158.755 220.691C159.193 220.56 159.563 220.265 159.788 219.869C160.014 219.473 160.078 219.005 159.967 218.563C159.841 218.123 159.546 217.75 159.147 217.525C158.748 217.299 158.276 217.238 157.833 217.355C153.395 218.829 148.76 219.624 144.083 219.714C141.856 219.786 141.846 223.245 144.083 223.173Z" fill="#211715"/>
<path d="M199.075 113.596C199.048 113.25 199.018 112.886 198.989 112.499C198.886 112.057 198.696 111.638 198.43 111.269C198.164 110.899 197.828 110.585 197.441 110.346C196.968 110.059 196.426 109.908 195.873 109.906C195.321 109.905 194.778 110.054 194.304 110.338C192.195 111.448 191.212 115.56 191.212 115.56L190.517 118.47C187.081 116.423 185.944 125.072 185.239 127.386C183.963 131.298 181.911 134.915 179.205 138.021C176.5 141.127 173.195 143.66 169.489 145.469C156.099 149.874 158.866 161.02 159.545 172.421C166.075 171.436 173.097 170.804 179.867 170.077C179.566 168.137 179.472 167.447 179.161 165.286C179.006 164.22 179.182 163.131 179.666 162.168C180.15 161.205 180.918 160.412 181.868 159.898C182.864 159.408 183.818 158.838 184.72 158.193C190.854 153.573 194.047 150.607 195.831 144.812C197.585 139.098 198.634 131.777 199.246 122.22C199.441 119.346 199.384 116.46 199.075 113.596Z" fill="#FFDBB4"/>
<path d="M161.218 171.461C160.848 166.143 159.821 160.298 161.278 155.241C161.882 153.028 163.185 151.068 164.993 149.651C166.178 148.751 167.49 148.031 168.886 147.514C170.585 146.882 172.208 146.066 173.727 145.079C179.9 141.068 184.521 135.084 186.831 128.109C187.514 125.943 187.793 123.677 188.604 121.544C188.777 121.129 188.978 120.727 189.206 120.339C189.26 120.248 189.32 120.16 189.384 120.075C189.197 120.324 189.353 120.125 189.394 120.075C189.394 120.075 189.703 119.724 189.519 119.931C189.412 120.003 189.423 119.999 189.553 119.91C189.694 119.838 189.698 119.826 189.567 119.883C189.551 119.965 189.477 119.9 189.706 119.857C189.256 119.942 189.522 119.872 189.613 119.897C189.185 119.779 190.318 120.081 189.827 119.941C190.131 120.027 190.203 120.148 190.405 120.496C190.47 120.608 190.53 120.722 190.584 120.84C190.457 120.564 190.616 120.948 190.64 121.028C190.722 121.297 190.79 121.569 190.847 121.844C190.937 122.385 190.983 122.932 190.984 123.48C190.989 124.528 190.929 125.576 190.804 126.618C190.268 130.896 189.47 135.137 188.414 139.318C187.908 141.484 191.252 142.408 191.761 140.238C192.854 135.88 193.679 131.459 194.232 127C194.565 124.873 194.528 122.705 194.121 120.591C193.496 118.009 190.856 115.367 188.022 116.805C185.72 117.972 184.957 121.227 184.39 123.507C183.825 126.269 182.906 128.948 181.657 131.478C179.854 134.799 177.441 137.754 174.545 140.189C173.162 141.353 171.665 142.376 170.077 143.242C168.471 144.12 166.696 144.607 165.089 145.489C162.434 146.89 160.282 149.078 158.929 151.751C155.995 157.837 157.3 165.006 157.75 171.47C157.761 171.925 157.947 172.359 158.27 172.681C158.593 173.003 159.028 173.189 159.485 173.199C159.944 173.196 160.384 173.012 160.708 172.689C161.033 172.365 161.217 171.927 161.22 171.47L161.218 171.461Z" fill="#211715"/>
<path d="M192.886 116.023C193.139 114.774 193.65 113.592 194.387 112.552C194.794 112.014 195.601 111.321 196.472 111.787C197.444 112.307 197.314 113.228 197.392 114.215C197.722 119.836 197.504 125.476 196.742 131.055C196.309 135.856 195.35 140.596 193.882 145.189C192.385 149.487 189.183 152.521 185.686 155.284C184.449 156.308 183.124 157.221 181.726 158.012C180.345 158.661 179.175 159.683 178.348 160.961C176.751 163.641 177.609 166.709 178.047 169.589C178.172 170.03 178.466 170.404 178.865 170.63C179.265 170.857 179.737 170.917 180.181 170.798C180.619 170.666 180.989 170.372 181.214 169.976C181.44 169.579 181.504 169.112 181.393 168.67C181.061 166.483 180.117 163.726 181.942 161.965C182.912 161.028 184.362 160.583 185.455 159.788C186.711 158.877 187.936 157.915 189.136 156.93C191.135 155.349 192.926 153.523 194.467 151.496C195.859 149.541 196.907 147.365 197.568 145.059C199.034 139.829 199.992 134.47 200.427 129.057C200.751 125.832 201.061 122.575 201.095 119.333C201.109 118.036 201.048 116.739 200.951 115.442C200.847 114.028 200.937 112.415 200.331 111.11C199.983 110.366 199.456 109.72 198.796 109.229C198.136 108.738 197.364 108.417 196.55 108.296C195.735 108.175 194.903 108.258 194.128 108.536C193.354 108.814 192.66 109.279 192.11 109.89C190.837 111.391 189.952 113.181 189.532 115.102C189.007 117.264 192.352 118.187 192.879 116.021L192.886 116.023Z" fill="#211715"/>
<path d="M198.749 208.513C197.17 200.874 195.664 193.217 194.156 185.562C193.44 181.925 192.722 178.289 192.004 174.653C191.709 173.162 191.527 171.578 191.088 170.122C190.801 169.179 190.162 168.381 189.303 167.893C188.246 167.295 187.186 167.489 186.05 167.633C181.469 168.21 176.872 168.656 172.28 169.138C169.906 169.386 167.532 169.642 165.163 169.931C164.006 170.071 162.853 170.22 161.703 170.377C160.615 170.521 159.419 170.55 158.482 171.182C156.419 172.576 156.705 175.243 156.649 177.419C156.585 179.887 156.554 182.356 156.556 184.824C156.56 189.725 156.685 194.625 156.957 199.521C157.264 205.07 157.78 210.601 158.505 216.116C159.217 221.502 159.962 226.94 161.126 232.25C161.602 234.423 164.949 233.504 164.473 231.33C163.492 226.858 162.849 222.293 162.203 217.763C161.557 213.233 161.077 208.683 160.73 204.124C160.047 194.883 159.854 185.612 160.151 176.35C160.168 175.788 159.939 174.462 160.416 174.044C160.56 173.918 160.958 173.944 161.147 173.916C161.707 173.836 162.268 173.758 162.829 173.684C165.07 173.387 167.312 173.129 169.559 172.884C173.959 172.404 178.365 171.985 182.762 171.483C183.86 171.358 184.956 171.227 186.052 171.089C186.51 171.032 187.493 170.721 187.729 171.023C187.943 171.554 188.066 172.118 188.091 172.691C188.251 173.496 188.412 174.302 188.572 175.107C189.232 178.434 189.889 181.762 190.542 185.09C192.141 193.208 193.735 201.327 195.409 209.429C195.859 211.608 199.205 210.686 198.755 208.51L198.749 208.513Z" fill="#211715"/>
</g>
<defs>
<clipPath id="clip0_507_2595">
<rect width="304" height="303" fill="white"/>
</clipPath>
</defs>
</svg>
